<svg width="1139" height="1141" viewBox="0 0 1139 1141" fill="none" xmlns="http://www.w3.org/2000/svg">
<path d="M571.411 899.262C592.685 899.262 610.09 916.667 610.09 937.941C610.09 959.214 592.685 976.619 571.411 976.619C550.138 976.619 532.733 959.214 532.733 937.941C532.733 916.667 550.138 899.262 571.411 899.262ZM407.031 854.782C426.369 864.452 432.171 889.592 420.567 906.997C408.964 926.335 385.757 932.137 368.352 920.533C349.014 908.93 343.212 885.723 354.816 868.318C364.484 850.915 389.626 845.114 407.031 854.782ZM287.128 734.882C298.732 754.22 290.997 777.427 273.592 787.097C254.254 796.767 231.047 790.965 221.377 773.56C211.706 754.222 217.508 731.015 234.913 721.345C252.318 709.739 275.525 715.541 287.128 734.882ZM203.972 531.822C225.245 531.822 242.65 549.227 242.65 570.501C242.65 591.775 225.245 609.18 203.972 609.18C182.698 609.18 165.293 591.775 165.293 570.501C165.293 549.227 182.698 531.822 203.972 531.822ZM271.657 353.903C290.995 365.507 296.796 388.713 285.193 406.118C275.523 425.457 250.383 431.258 232.978 419.655C213.64 408.052 207.838 384.845 219.441 367.44C231.045 348.101 254.251 342.3 271.657 353.903Z" fill="#80D6FA"/>
<path d="M996.868 531.822C1054.89 473.806 1132.24 495.079 1132.24 570.501C1132.24 879.924 880.834 1131.33 571.409 1131.33C261.984 1131.33 10.5806 879.924 10.5806 570.499C10.5806 272.68 261.989 9.67029 573.345 9.67029C648.767 9.67029 668.105 87.0254 610.088 145.042C563.674 191.456 532.733 261.076 532.733 319.093C532.733 466.068 615.89 570.499 745.462 601.443C745.462 601.443 766.736 609.178 822.817 609.178C878.899 609.178 954.323 574.367 996.868 531.822ZM938.851 783.228C938.851 740.683 904.041 705.873 861.496 705.873C818.951 705.873 784.141 740.683 784.141 783.228C784.141 825.773 818.951 860.583 861.496 860.583C904.041 860.583 938.851 825.773 938.851 783.228Z" fill="#ECF4F7"/>
<path d="M610.09 937.941C610.09 916.667 592.685 899.262 571.412 899.262C550.138 899.262 532.733 916.667 532.733 937.941C532.733 959.215 550.138 976.62 571.412 976.62C592.685 976.62 610.09 959.212 610.09 937.941Z" fill="#7EE1E6"/>
<path d="M420.568 908.932C432.171 889.594 424.436 866.387 407.031 856.717C389.626 845.114 364.486 852.849 354.816 870.254C345.146 889.592 350.947 912.799 368.352 922.469C387.691 932.139 410.897 926.337 420.568 908.932Z" fill="#FFE079"/>
<path d="M287.129 406.118C296.799 386.78 290.997 363.573 273.592 353.903C254.254 342.3 231.047 350.035 221.377 367.44C209.774 386.778 217.508 409.985 234.913 419.655C252.318 431.258 275.525 425.457 287.129 406.118Z" fill="#C49AE9"/>
<path d="M271.657 787.097C290.995 775.494 296.796 752.287 285.193 734.882C273.59 717.477 250.383 709.742 232.978 721.345C213.64 732.949 207.838 756.155 219.441 773.56C231.045 792.899 254.252 798.7 271.657 787.097Z" fill="#FF7474"/>
<path d="M242.648 570.499C242.648 549.225 225.243 531.82 203.97 531.82C182.696 531.82 165.291 549.225 165.291 570.499C165.291 591.773 182.696 609.178 203.97 609.178C225.243 609.178 242.648 591.773 242.648 570.499Z" fill="#50DD8E"/>
<path d="M571.411 1141C256.187 1141 0.912598 885.726 0.912598 570.501C0.912598 261.076 261.989 0 571.411 0C608.155 0 635.23 15.4719 646.833 44.4804C660.37 77.3574 648.767 119.902 615.892 152.779C571.411 197.26 540.47 264.945 540.47 319.095C540.47 460.269 617.825 562.766 745.462 591.775C751.264 593.708 753.197 597.576 753.197 603.378C751.264 609.18 747.395 611.113 741.594 611.113C606.222 580.169 521.129 468.004 521.129 319.093C521.129 257.208 552.071 187.587 600.42 137.307C627.495 110.232 637.163 77.3574 627.495 50.2821C619.76 29.0085 598.487 17.4051 569.478 17.4051C269.724 17.4051 18.3177 270.746 18.3177 568.566C18.3177 872.187 265.857 1119.73 569.478 1119.73C873.099 1119.73 1120.64 872.187 1120.64 568.566C1120.64 539.557 1109.04 518.284 1087.76 510.549C1062.62 500.879 1027.81 510.549 1002.67 537.624C956.256 584.038 878.901 616.915 820.884 616.915C815.082 616.915 811.214 613.046 811.214 607.244C811.214 601.443 815.082 597.574 820.884 597.574C873.099 597.574 944.653 564.697 987.2 522.152C1020.08 489.275 1060.69 477.672 1093.56 491.211C1122.57 502.814 1138.04 529.889 1138.04 566.633C1141.91 885.726 886.636 1141 571.411 1141ZM571.411 986.287C544.336 986.287 523.065 965.014 523.065 937.941C523.065 910.865 544.338 889.594 571.411 889.594C584.948 889.594 596.551 895.396 606.222 903.131C615.892 912.801 619.758 924.404 619.758 937.941C619.758 965.014 598.487 986.287 571.411 986.287ZM571.411 908.932C555.939 908.932 542.403 922.469 542.403 937.941C542.403 953.413 555.939 966.949 571.411 966.949C586.883 966.949 600.42 953.413 600.42 937.941C600.42 930.206 596.551 922.469 592.685 916.667C586.883 912.799 579.146 908.932 571.411 908.932ZM387.69 937.941C379.956 937.941 370.285 936.008 364.484 932.139C341.277 918.603 333.542 889.594 347.079 866.387C360.615 843.181 389.624 835.446 412.83 848.982C424.434 854.784 432.169 866.387 436.037 877.991C439.906 889.594 437.97 903.131 430.235 914.734C424.434 926.337 412.83 934.072 401.227 937.941C395.428 936.005 391.559 937.941 387.69 937.941ZM387.69 860.583C378.02 860.583 368.352 866.385 362.551 874.12C354.816 887.656 358.682 905.062 372.221 912.799C378.023 916.667 385.757 918.6 393.494 914.732C401.229 912.799 407.031 906.997 410.9 901.195C414.768 895.394 416.701 885.723 414.768 879.922C412.835 872.187 407.033 866.385 401.232 862.516C397.361 860.583 393.492 860.583 387.69 860.583ZM861.496 870.254C813.149 870.254 774.471 831.575 774.471 783.228C774.471 734.882 813.149 696.203 861.496 696.203C909.843 696.203 948.521 734.882 948.521 783.228C948.521 831.575 909.843 870.254 861.496 870.254ZM861.496 715.541C824.753 715.541 793.809 746.483 793.809 783.228C793.809 819.972 824.75 850.915 861.496 850.915C898.239 850.915 929.183 819.974 929.183 783.228C929.183 746.485 898.239 715.541 861.496 715.541ZM254.252 802.566C236.846 802.566 221.375 794.832 211.707 779.36C198.17 756.153 205.905 727.144 229.112 713.608C240.715 707.806 254.252 705.873 265.855 709.739C277.458 713.608 289.062 721.343 294.863 732.946C308.4 756.153 300.665 785.161 277.458 798.698C269.724 800.633 261.989 802.566 254.252 802.566ZM252.318 725.211C246.517 725.211 242.648 727.144 238.782 729.08C225.245 736.815 219.444 754.22 229.112 769.692C238.782 785.164 254.252 789.03 267.79 779.362C281.327 771.627 287.129 754.222 277.461 740.683C273.592 734.882 267.79 729.08 260.056 727.147C258.12 725.211 256.187 725.211 252.318 725.211ZM203.972 618.848C176.896 618.848 155.625 597.574 155.625 570.501C155.625 543.426 176.899 522.154 203.972 522.154C231.045 522.154 252.318 543.428 252.318 570.501C252.318 597.574 231.045 618.848 203.972 618.848ZM203.972 541.49C188.5 541.49 174.963 555.027 174.963 570.499C174.963 585.971 188.5 599.507 203.972 599.507C219.444 599.507 232.98 585.971 232.98 570.499C232.98 555.029 219.441 541.49 203.972 541.49ZM252.318 435.127C244.584 435.127 234.913 433.194 229.112 429.325C205.905 415.789 198.17 386.78 211.707 363.573C217.508 351.97 229.112 344.235 240.715 340.367C252.318 336.498 265.855 338.433 277.458 346.168C289.062 351.97 296.797 363.573 300.665 375.177C304.534 386.78 302.598 400.317 294.863 411.92C285.195 427.392 269.724 435.127 252.318 435.127ZM252.318 357.772C250.385 357.772 246.517 357.772 244.584 359.705C236.849 361.638 231.047 367.44 227.179 373.241C223.31 379.043 221.377 388.713 225.245 394.515C227.179 402.25 232.98 408.051 238.782 411.92C252.318 419.655 269.724 415.789 277.461 402.25C281.329 396.448 283.262 386.778 279.394 380.976C277.461 373.241 271.659 367.44 265.857 363.571C263.922 359.705 258.12 357.772 252.318 357.772Z" fill="black"/>
</svg>
